<mxfile host="app.diagrams.net" modified="2020-12-17T06:47:44.298Z" agent="5.0 (X11; Linux x86_64) AppleWebKit/537.36 (KHTML, like Gecko) Chrome/85.0.4183.102 Safari/537.36" etag="1eX4TxZH5JH4QLImY3wF" version="13.10.1" type="github">
  <diagram name="Page-1" id="74e2e168-ea6b-b213-b513-2b3c1d86103e">
    <mxGraphModel dx="1422" dy="721" grid="1" gridSize="10" guides="1" tooltips="1" connect="1" arrows="1" fold="1" page="1" pageScale="1" pageWidth="1100" pageHeight="850" background="#ffffff" math="0" shadow="0">
      <root>
        <mxCell id="0" />
        <mxCell id="1" parent="0" />
        <mxCell id="ICt9YaVv3MhZrXbYKh8g-3" value="" style="edgeStyle=orthogonalEdgeStyle;rounded=0;orthogonalLoop=1;jettySize=auto;html=1;" edge="1" parent="1" source="ICt9YaVv3MhZrXbYKh8g-1" target="ICt9YaVv3MhZrXbYKh8g-2">
          <mxGeometry relative="1" as="geometry" />
        </mxCell>
        <mxCell id="ICt9YaVv3MhZrXbYKh8g-1" value="开始" style="strokeWidth=2;html=1;shape=mxgraph.flowchart.terminator;whiteSpace=wrap;" vertex="1" parent="1">
          <mxGeometry x="460" y="20" width="70" height="30" as="geometry" />
        </mxCell>
        <mxCell id="ICt9YaVv3MhZrXbYKh8g-11" value="" style="edgeStyle=orthogonalEdgeStyle;rounded=0;orthogonalLoop=1;jettySize=auto;html=1;" edge="1" parent="1" source="ICt9YaVv3MhZrXbYKh8g-2" target="ICt9YaVv3MhZrXbYKh8g-10">
          <mxGeometry relative="1" as="geometry" />
        </mxCell>
        <mxCell id="ICt9YaVv3MhZrXbYKh8g-2" value="读取KMS导入数据" style="whiteSpace=wrap;html=1;strokeWidth=2;" vertex="1" parent="1">
          <mxGeometry x="447.5" y="80" width="95" height="35" as="geometry" />
        </mxCell>
        <mxCell id="ICt9YaVv3MhZrXbYKh8g-13" value="" style="edgeStyle=orthogonalEdgeStyle;rounded=0;orthogonalLoop=1;jettySize=auto;html=1;" edge="1" parent="1" source="ICt9YaVv3MhZrXbYKh8g-10" target="ICt9YaVv3MhZrXbYKh8g-12">
          <mxGeometry relative="1" as="geometry" />
        </mxCell>
        <mxCell id="ICt9YaVv3MhZrXbYKh8g-14" value="否" style="edgeLabel;html=1;align=center;verticalAlign=middle;resizable=0;points=[];" vertex="1" connectable="0" parent="ICt9YaVv3MhZrXbYKh8g-13">
          <mxGeometry x="-0.28" y="-3" relative="1" as="geometry">
            <mxPoint as="offset" />
          </mxGeometry>
        </mxCell>
        <mxCell id="ICt9YaVv3MhZrXbYKh8g-10" value="是否已绑定硬件信息" style="rhombus;whiteSpace=wrap;html=1;strokeWidth=2;" vertex="1" parent="1">
          <mxGeometry x="455" y="172.5" width="80" height="80" as="geometry" />
        </mxCell>
        <mxCell id="ICt9YaVv3MhZrXbYKh8g-19" value="" style="edgeStyle=orthogonalEdgeStyle;rounded=0;orthogonalLoop=1;jettySize=auto;html=1;" edge="1" parent="1" source="ICt9YaVv3MhZrXbYKh8g-12" target="ICt9YaVv3MhZrXbYKh8g-18">
          <mxGeometry relative="1" as="geometry" />
        </mxCell>
        <mxCell id="ICt9YaVv3MhZrXbYKh8g-12" value="绑定硬件信息" style="whiteSpace=wrap;html=1;strokeWidth=2;" vertex="1" parent="1">
          <mxGeometry x="40" y="182.5" width="120" height="60" as="geometry" />
        </mxCell>
        <mxCell id="ICt9YaVv3MhZrXbYKh8g-15" value="结束" style="strokeWidth=2;html=1;shape=mxgraph.flowchart.terminator;whiteSpace=wrap;" vertex="1" parent="1">
          <mxGeometry x="455" y="770" width="100" height="60" as="geometry" />
        </mxCell>
        <mxCell id="ICt9YaVv3MhZrXbYKh8g-20" style="edgeStyle=orthogonalEdgeStyle;rounded=0;orthogonalLoop=1;jettySize=auto;html=1;entryX=0;entryY=0.5;entryDx=0;entryDy=0;entryPerimeter=0;" edge="1" parent="1" source="ICt9YaVv3MhZrXbYKh8g-18" target="ICt9YaVv3MhZrXbYKh8g-15">
          <mxGeometry relative="1" as="geometry">
            <Array as="points">
              <mxPoint x="100" y="800" />
            </Array>
          </mxGeometry>
        </mxCell>
        <mxCell id="ICt9YaVv3MhZrXbYKh8g-21" value="否" style="edgeLabel;html=1;align=center;verticalAlign=middle;resizable=0;points=[];" vertex="1" connectable="0" parent="ICt9YaVv3MhZrXbYKh8g-20">
          <mxGeometry x="-0.4661" y="2" relative="1" as="geometry">
            <mxPoint as="offset" />
          </mxGeometry>
        </mxCell>
        <mxCell id="ICt9YaVv3MhZrXbYKh8g-25" value="" style="edgeStyle=orthogonalEdgeStyle;rounded=0;orthogonalLoop=1;jettySize=auto;html=1;" edge="1" parent="1" source="ICt9YaVv3MhZrXbYKh8g-18" target="ICt9YaVv3MhZrXbYKh8g-24">
          <mxGeometry relative="1" as="geometry">
            <Array as="points">
              <mxPoint x="170" y="350" />
              <mxPoint x="170" y="350" />
            </Array>
          </mxGeometry>
        </mxCell>
        <mxCell id="ICt9YaVv3MhZrXbYKh8g-32" value="是" style="edgeLabel;html=1;align=center;verticalAlign=middle;resizable=0;points=[];" vertex="1" connectable="0" parent="ICt9YaVv3MhZrXbYKh8g-25">
          <mxGeometry x="-0.5684" y="2" relative="1" as="geometry">
            <mxPoint as="offset" />
          </mxGeometry>
        </mxCell>
        <mxCell id="ICt9YaVv3MhZrXbYKh8g-18" value="是否撞码" style="rhombus;whiteSpace=wrap;html=1;strokeWidth=2;" vertex="1" parent="1">
          <mxGeometry x="60" y="310" width="80" height="80" as="geometry" />
        </mxCell>
        <mxCell id="ICt9YaVv3MhZrXbYKh8g-29" value="" style="edgeStyle=orthogonalEdgeStyle;rounded=0;orthogonalLoop=1;jettySize=auto;html=1;entryX=0;entryY=0.5;entryDx=0;entryDy=0;entryPerimeter=0;" edge="1" parent="1" source="ICt9YaVv3MhZrXbYKh8g-24" target="ICt9YaVv3MhZrXbYKh8g-33">
          <mxGeometry relative="1" as="geometry">
            <mxPoint x="335" y="350" as="targetPoint" />
          </mxGeometry>
        </mxCell>
        <mxCell id="ICt9YaVv3MhZrXbYKh8g-30" value="是" style="edgeLabel;html=1;align=center;verticalAlign=middle;resizable=0;points=[];" vertex="1" connectable="0" parent="ICt9YaVv3MhZrXbYKh8g-29">
          <mxGeometry x="-0.6636" y="-1" relative="1" as="geometry">
            <mxPoint as="offset" />
          </mxGeometry>
        </mxCell>
        <mxCell id="ICt9YaVv3MhZrXbYKh8g-35" style="edgeStyle=orthogonalEdgeStyle;rounded=0;orthogonalLoop=1;jettySize=auto;html=1;" edge="1" parent="1" source="ICt9YaVv3MhZrXbYKh8g-24" target="ICt9YaVv3MhZrXbYKh8g-34">
          <mxGeometry relative="1" as="geometry" />
        </mxCell>
        <mxCell id="ICt9YaVv3MhZrXbYKh8g-37" value="否" style="edgeLabel;html=1;align=center;verticalAlign=middle;resizable=0;points=[];" vertex="1" connectable="0" parent="ICt9YaVv3MhZrXbYKh8g-35">
          <mxGeometry x="-0.2667" y="-4" relative="1" as="geometry">
            <mxPoint as="offset" />
          </mxGeometry>
        </mxCell>
        <mxCell id="ICt9YaVv3MhZrXbYKh8g-24" value="是否序列号撞码" style="rhombus;whiteSpace=wrap;html=1;strokeWidth=2;" vertex="1" parent="1">
          <mxGeometry x="210" y="310" width="80" height="80" as="geometry" />
        </mxCell>
        <mxCell id="ICt9YaVv3MhZrXbYKh8g-33" value="是否同产线" style="strokeWidth=2;html=1;shape=mxgraph.flowchart.decision;whiteSpace=wrap;" vertex="1" parent="1">
          <mxGeometry x="330" y="300" width="100" height="100" as="geometry" />
        </mxCell>
        <mxCell id="ICt9YaVv3MhZrXbYKh8g-36" style="edgeStyle=orthogonalEdgeStyle;rounded=0;orthogonalLoop=1;jettySize=auto;html=1;entryX=0;entryY=0.5;entryDx=0;entryDy=0;entryPerimeter=0;" edge="1" parent="1" source="ICt9YaVv3MhZrXbYKh8g-34" target="ICt9YaVv3MhZrXbYKh8g-15">
          <mxGeometry relative="1" as="geometry">
            <Array as="points">
              <mxPoint x="250" y="800" />
            </Array>
          </mxGeometry>
        </mxCell>
        <mxCell id="ICt9YaVv3MhZrXbYKh8g-34" value="更新硬件信息,绑定并输出日志" style="rounded=1;whiteSpace=wrap;html=1;absoluteArcSize=1;arcSize=14;strokeWidth=2;" vertex="1" parent="1">
          <mxGeometry x="200" y="510" width="100" height="50" as="geometry" />
        </mxCell>
      </root>
    </mxGraphModel>
  </diagram>
</mxfile>
